# 
# Generated by Sweet Home 3D - s?b oct 03 22:23:21 COT 2015
# http://www.sweethome3d.com/
# 
mtllib casa.mtl
g ground_1
usemtl ground_1
v 95.749985 0.0 93.80922
v 95.749985 0.0 402.30933
v 603.25 0.0 402.30933
v 599.5 0.0 399.5592
v 99.5 0.0 399.55917
v 99.5 0.0 99.55922
v 599.5 0.0 99.55922
v 603.25 0.0 93.80922
vn 0.0 1.0 0.0
vn 0.0 0.0 0.0
f 4//1 3//1 8//1
f 7//1 4//1 8//1
f 7//1 8//1 1//1
f 6//1 7//1 1//1
f 6//1 1//1 2//1
f 5//1 6//1 2//1
f 5//1 2//1 3//1
f 5//1 3//1 4//1
g wall_1_2
usemtl wall_1_2
v 99.5 0.0 93.80922
v 99.5 0.0 97.55922
v 599.5 0.0 97.55922
vn 0.0 -1.0 0.0
f 8//3 11//3 10//3
f 8//3 10//3 9//3
g wall_1_3
usemtl wall_1_2
v 99.5 0.0 101.30922
v 595.75 0.0 101.30922
f 11//3 13//3 12//3
f 11//3 12//3 10//3
g wall_1_4
usemtl wall_1_2
v 99.5 250.0 97.55922
v 99.5 250.0 93.80922
v 603.25 250.0 93.80922
v 599.5 250.0 97.55922
vn -1.0 0.0 0.0
vn 0.70710677 0.0 0.70710677
vn 0.0 0.0 -1.0
f 9//4 10//4 14//4 15//4
f 11//5 8//5 16//5 17//5
f 8//6 9//6 15//6 16//6
g wall_1_5
usemtl wall_1_2
v 99.5 250.0 101.30922
v 595.75 250.0 101.30922
vn 0.0 0.0 1.0
f 10//4 12//4 18//4 14//4
f 12//7 13//7 19//7 18//7
f 13//5 11//5 17//5 19//5
g wall_1_6
usemtl wall_1_2
f 15//1 14//1 17//1
f 15//1 17//1 16//1
g wall_1_7
usemtl wall_1_2
f 14//1 18//1 19//1
f 14//1 19//1 17//1
g wall_2_8
usemtl wall_1_2
v 599.5 0.0 397.5592
v 603.25 0.0 401.3092
f 21//3 20//3 11//3
f 21//3 11//3 8//3
g wall_2_9
usemtl wall_1_2
v 595.75 0.0 393.8092
f 20//3 22//3 13//3
f 20//3 13//3 11//3
g wall_2_10
usemtl wall_1_2
v 603.25 250.0 401.3092
v 599.5 250.0 397.5592
vn -0.70710677 0.0 -0.70710677
vn -0.70710677 0.0 0.70710677
vn 1.0 0.0 0.0
f 8//8 11//8 17//8 16//8
f 20//9 21//9 23//9 24//9
f 21//10 8//10 16//10 23//10
g wall_2_11
usemtl wall_1_2
v 595.75 250.0 393.8092
f 11//8 13//8 19//8 17//8
f 13//4 22//4 25//4 19//4
f 22//9 20//9 24//9 25//9
g wall_2_12
usemtl wall_1_2
f 16//1 17//1 24//1
f 16//1 24//1 23//1
g wall_2_13
usemtl wall_1_2
f 17//1 19//1 25//1
f 17//1 25//1 24//1
g wall_3_14
usemtl wall_1_2
v 423.95764 0.0 397.5592
v 423.95764 0.0 401.3092
f 21//3 27//3 26//3
f 21//3 26//3 20//3
v 332.45764 0.0 397.55923
v 99.5 0.0 397.55923
v 95.75 0.0 401.30923
v 332.45764 0.0 401.30923
f 31//3 30//3 29//3
f 31//3 29//3 28//3
g wall_3_15
usemtl wall_1_2
v 423.95764 0.0 393.8092
f 20//3 26//3 32//3
f 20//3 32//3 22//3
v 332.45764 0.0 393.80923
v 103.25 0.0 393.80923
f 28//3 29//3 34//3
f 28//3 34//3 33//3
g wall_3_16
usemtl wall_1_2
v 423.95764 250.0 401.3092
v 423.95764 250.0 397.5592
vn 0.70710677 0.0 -0.70710677
f 26//4 27//4 35//4 36//4
f 27//7 21//7 23//7 35//7
f 21//11 20//11 24//11 23//11
v 95.75 250.0 401.30923
v 99.5 250.0 397.55923
v 332.45764 250.0 401.30923
v 332.45764 250.0 397.55923
f 29//8 30//8 37//8 38//8
f 30//7 31//7 39//7 37//7
f 31//10 28//10 40//10 39//10
v 332.45764 208.5 397.55923
v 332.45764 208.5 401.30923
v 423.95764 208.5 401.3092
v 423.95764 208.5 397.5592
vn 0.0000003 0.0 1.0
f 41//4 42//4 39//4 40//4
f 42//12 43//12 35//12 39//12
f 43//10 44//10 36//10 35//10
f 43//3 42//3 41//3
f 43//3 41//3 44//3
g wall_3_17
usemtl wall_1_2
v 423.95764 250.0 393.8092
f 22//6 32//6 45//6 25//6
f 32//4 26//4 36//4 45//4
f 20//11 22//11 25//11 24//11
v 103.25 250.0 393.80923
v 332.45764 250.0 393.80923
f 33//6 34//6 46//6 47//6
f 34//8 29//8 38//8 46//8
f 28//10 33//10 47//10 40//10
v 423.95764 208.5 393.8092
v 332.45764 208.5 393.80923
vn -0.0000003 0.0 -1.0
f 48//13 49//13 47//13 45//13
f 49//4 41//4 40//4 47//4
f 44//10 48//10 45//10 36//10
f 44//3 41//3 49//3
f 44//3 49//3 48//3
g wall_3_18
usemtl wall_1_2
f 24//1 36//1 35//1
f 24//1 35//1 23//1
f 40//1 38//1 37//1
f 40//1 37//1 39//1
f 36//1 40//1 39//1
f 36//1 39//1 35//1
g wall_3_19
usemtl wall_1_2
f 25//1 45//1 36//1
f 25//1 36//1 24//1
f 47//1 46//1 38//1
f 47//1 38//1 40//1
f 45//1 47//1 40//1
f 45//1 40//1 36//1
g wall_4_20
usemtl wall_1_2
v 95.749985 0.0 97.55922
v 99.499985 0.0 97.55922
f 51//3 29//3 30//3
f 51//3 30//3 50//3
g wall_4_21
usemtl wall_1_2
v 103.249985 0.0 97.55922
f 52//3 34//3 29//3
f 52//3 29//3 51//3
g wall_4_22
usemtl wall_1_2
v 95.749985 250.0 97.55922
v 99.499985 250.0 97.55922
vn -1.0 0.0 0.0000001
f 50//14 30//14 37//14 53//14
f 30//5 29//5 38//5 37//5
f 51//6 50//6 53//6 54//6
g wall_4_23
usemtl wall_1_2
v 103.249985 250.0 97.55922
vn 1.0 0.0 -0.0000001
f 29//5 34//5 46//5 38//5
f 34//15 52//15 55//15 46//15
f 52//6 51//6 54//6 55//6
g wall_4_24
usemtl wall_1_2
f 53//1 37//1 38//1
f 53//1 38//1 54//1
g wall_4_25
usemtl wall_1_2
f 54//1 38//1 46//1
f 54//1 46//1 55//1
g room_5_26
usemtl wall_1_2
f 7//1 6//1 5//1
f 7//1 5//1 4//1
g Montant_27
usemtl white
v 332.45764 0.0 392.8091
v 332.45764 0.0 402.30936
v 332.45764 104.25 397.55923
v 332.45764 208.5 402.30936
v 332.45764 208.5 392.8091
v 423.95764 0.0 402.30936
v 423.95764 0.0 392.8091
v 423.95764 104.25 397.55923
v 423.95764 208.5 392.8091
v 423.95764 208.5 402.30936
v 378.20764 208.5 397.55923
v 418.45764 203.0 402.30936
v 418.45764 0.0 402.30936
v 337.95764 0.0 402.30936
v 337.95764 0.0 396.75922
v 337.95764 203.0 396.75922
v 337.95764 203.0 402.30936
v 419.55765 0.0 396.75922
v 336.85764 204.09999 392.8091
v 378.20764 204.09999 394.75916
v 336.85764 204.09999 396.75922
v 419.55765 0.0 392.8091
v 419.55765 102.049995 394.75916
v 419.55765 204.09999 392.8091
v 336.85764 0.0 392.8091
v 418.45764 203.0 396.75922
v 418.45764 0.0 396.75922
v 419.55765 204.09999 396.75922
v 336.85764 102.049995 394.75916
v 336.85764 0.0 396.75922
vn -1.0 0.0 0.0000002
vn 1.0 0.0 -0.0000002
vn 0.0000002 0.0 0.99999994
vn -0.0000002 0.0 -0.99999994
vn -0.0000002 0.0 -1.0
vn 0.0000002 0.0 1.0
f 56//16 57//16 58//16
f 57//16 59//16 58//16
f 59//16 60//16 58//16
f 60//16 56//16 58//16
f 61//17 62//17 63//17
f 62//17 64//17 63//17
f 64//17 65//17 63//17
f 65//17 61//17 63//17
f 64//1 60//1 66//1
f 60//1 59//1 66//1
f 59//1 65//1 66//1
f 65//1 64//1 66//1
f 61//18 67//18 68//18
f 69//3 57//3 70//3
f 70//17 71//17 72//17
f 62//3 61//3 73//3
f 74//3 75//3 76//3
f 77//16 78//16 79//16
f 60//19 80//19 56//19
f 60//20 64//20 74//20
f 67//3 71//3 81//3
f 82//16 68//16 67//16
f 62//19 79//19 64//19
f 72//18 57//18 69//18
f 81//20 73//20 82//20
f 61//18 65//18 67//18
f 81//16 82//16 67//16
f 65//21 59//21 72//21
f 76//20 83//20 71//20
f 59//18 57//18 72//18
f 74//17 76//17 84//17
f 57//3 56//3 85//3
f 70//3 57//3 85//3
f 85//3 56//3 80//3
f 82//3 61//3 68//3
f 71//3 67//3 72//3
f 83//20 73//20 81//20
f 61//3 82//3 73//3
f 76//17 85//17 84//17
f 79//20 62//20 77//20
f 73//16 83//16 78//16
f 79//16 78//16 83//16
f 69//17 70//17 72//17
f 85//20 71//20 70//20
f 80//19 60//19 74//19
f 85//20 76//20 71//20
f 74//20 64//20 79//20
f 71//20 83//20 81//20
f 83//3 76//3 75//3
f 79//3 75//3 74//3
f 77//16 73//16 78//16
f 77//3 62//3 73//3
f 74//17 84//17 80//17
f 79//3 83//3 75//3
f 72//21 67//21 65//21
f 85//17 80//17 84//17
